<svg width="44px" height="44px" viewBox="0 0 44 44" version="1.1" xmlns="http://www.w3.org/2000/svg" xmlns:xlink="http://www.w3.org/1999/xlink"><title>Mailgun icon</title><g id="Mailgun-Homepage" stroke="none" stroke-width="1" fill="none" fill-rule="evenodd"><g id="Homepage-Mailgun-Desktop" transform="translate(-618.000000, -7475.000000)" fill="#F06B66"><g id="Signup-Banner" transform="translate(0.000000, 7357.000000)"><g id="Group" transform="translate(232.000000, 112.000000)"><g id="04-Icons/Icons/Mailgun" transform="translate(386.475000, 6.475000)"><path d="M21.49875,0 C33.3532941,0 42.9975,9.645216 42.9975,21.500864 C42.9975,25.327344 39.8849738,28.440496 36.0591861,28.440496 C34.7726499,28.440496 33.514783,28.083104 32.4214289,27.40696 L32.3215342,27.345248 L32.2646435,27.447952 C30.0902539,31.369296 25.9650061,33.805296 21.49875,33.805296 C14.7149817,33.805296 9.19602365,28.285824 9.19602365,21.501424 C9.19602365,14.717024 14.7149817,9.197552 21.49875,9.197552 C28.2825183,9.197552 33.8014763,14.717024 33.8014763,21.501424 C33.8014763,22.746528 34.81431,23.759456 36.0591861,23.759456 C37.3041742,23.759456 38.3168959,22.746528 38.3168959,21.501424 C38.3168959,12.226592 30.7723824,4.68104 21.49875,4.68104 C12.2252296,4.68104 4.68060413,12.226368 4.68060413,21.500864 C4.68060413,30.77536 12.2252296,38.320688 21.49875,38.320688 C26.4427536,38.320688 31.1061113,36.16312 34.3113649,32.397344 L37.8954791,35.408016 C33.7986766,40.23544 27.8290725,43.001728 21.49875,43.001728 C9.6443179,43.001728 0,33.356512 0,21.500864 C0,9.645216 9.6443179,0 21.49875,0 Z M21.49875,13.878592 C17.2958934,13.878592 13.8766278,17.298176 13.8766278,21.501424 C13.8766278,25.704672 17.2958934,29.124256 21.49875,29.124256 C25.7016066,29.124256 29.1208722,25.704672 29.1208722,21.501424 C29.1208722,17.298176 25.7016066,13.878592 21.49875,13.878592 Z M21.49875,18.4214464 C23.1969599,18.4214464 24.5784632,19.8030784 24.5784632,21.5014464 C24.5784632,23.1997024 23.1969599,24.5814464 21.49875,24.5814464 C19.8006521,24.5814464 18.4190368,23.1997024 18.4190368,21.5014464 C18.4190368,19.8030784 19.8006521,18.4214464 21.49875,18.4214464 Z" id="MG-Icon"></path></g></g></g></g></g></svg>
